<?xml version="1.0" encoding="UTF-8"?>
<svg xmlns="http://www.w3.org/2000/svg" xmlns:xlink="http://www.w3.org/1999/xlink" width="px" height="80px" viewBox="0 0 65 79" version="1.1">
<g id="surface1">
<path style=" stroke:none;fill-rule:nonzero;fill:rgb(0%,0%,0%);fill-opacity:1;" d="M 62.933594 26.929688 C 62.46875 27.285156 54.292969 31.84375 54.292969 41.980469 C 54.292969 53.703125 64.695312 57.851562 65.007812 57.953125 C 64.960938 58.207031 63.355469 63.632812 59.523438 69.164062 C 56.105469 74.03125 52.535156 78.890625 47.105469 78.890625 C 41.675781 78.890625 40.277344 75.769531 34.007812 75.769531 C 27.902344 75.769531 25.726562 78.992188 20.761719 78.992188 C 15.792969 78.992188 12.328125 74.488281 8.34375 68.960938 C 3.730469 62.464844 0 52.378906 0 42.800781 C 0 27.445312 10.09375 19.300781 20.027344 19.300781 C 25.304688 19.300781 29.707031 22.726562 33.019531 22.726562 C 36.171875 22.726562 41.09375 19.09375 47.097656 19.09375 C 49.371094 19.09375 57.550781 19.300781 62.933594 26.929688 Z M 44.246094 12.59375 C 46.730469 9.675781 48.488281 5.632812 48.488281 1.589844 C 48.488281 1.027344 48.4375 0.457031 48.335938 0 C 44.292969 0.148438 39.488281 2.664062 36.589844 5.988281 C 34.3125 8.546875 32.1875 12.59375 32.1875 16.691406 C 32.1875 17.308594 32.292969 17.925781 32.339844 18.121094 C 32.597656 18.171875 33.011719 18.226562 33.425781 18.226562 C 37.050781 18.226562 41.609375 15.824219 44.246094 12.59375 Z M 44.246094 12.59375 "/>
</g>
</svg>
