<?xml version="1.0" encoding="UTF-8"?>
<svg xmlns="http://www.w3.org/2000/svg" xmlns:xlink="http://www.w3.org/1999/xlink" width="px" height="80px" viewBox="0 0 286 80" version="1.1">
<g id="surface1">
<path style=" stroke:none;fill-rule:nonzero;fill:rgb(0%,0%,0%);fill-opacity:1;" d="M 0 40.019531 C 0 62.03125 0.0546875 80.035156 0.125 80.035156 C 0.234375 80.035156 14.980469 77.296875 16.789062 76.933594 L 17.730469 76.75 L 17.730469 47.367188 L 28.949219 47.367188 L 28.949219 44.683594 C 28.949219 43.210938 29 39.382812 29.074219 36.152344 L 29.183594 30.308594 L 17.730469 30.308594 L 17.730469 17.421875 L 24.332031 17.421875 C 27.96875 17.421875 30.9375 17.386719 30.9375 17.332031 C 30.9375 17.132812 32.386719 1.632812 32.476562 0.851562 L 32.582031 0 L 0 0 Z M 0 40.019531 "/>
<path style=" stroke:none;fill-rule:nonzero;fill:rgb(0%,0%,0%);fill-opacity:1;" d="M 270.621094 2.339844 L 256.183594 3.539062 L 256.183594 75.84375 L 256.78125 75.933594 C 257.304688 76.027344 285.257812 78.058594 285.820312 78.039062 C 285.980469 78.039062 286.035156 76.117188 286.035156 69.054688 L 286.035156 60.074219 L 273.734375 60.074219 L 273.734375 47.003906 L 284.226562 47.003906 L 284.226562 31.398438 L 273.371094 31.398438 L 273.371094 21.050781 L 273.789062 20.980469 C 274.003906 20.925781 275.851562 20.851562 277.894531 20.78125 C 279.9375 20.726562 282.597656 20.636719 283.828125 20.5625 L 286.035156 20.453125 L 286.035156 1.089844 L 285.546875 1.105469 C 285.257812 1.125 278.546875 1.667969 270.621094 2.339844 Z M 270.621094 2.339844 "/>
<path style=" stroke:none;fill-rule:nonzero;fill:rgb(0%,0%,0%);fill-opacity:1;" d="M 177.9375 4.847656 C 178.117188 6.660156 180.179688 34.011719 180.144531 34.046875 C 180.125 34.082031 177.464844 27.53125 174.226562 19.492188 C 171.007812 11.453125 168.292969 4.792969 168.21875 4.664062 C 168.113281 4.464844 163.117188 5.390625 154.921875 7.132812 L 154.144531 7.296875 L 154.144531 69.691406 L 170.246094 69.691406 L 170.15625 68.382812 C 169.976562 65.953125 169.304688 45.84375 169.378906 45.046875 C 169.433594 44.335938 169.976562 45.570312 175.113281 58.023438 C 178.226562 65.589844 180.867188 71.851562 180.9375 71.960938 C 181.046875 72.070312 183.5625 71.90625 187.832031 71.542969 C 191.542969 71.214844 194.582031 70.925781 194.582031 70.90625 C 194.597656 70.890625 194.507812 57.804688 194.382812 41.832031 C 194.253906 25.863281 194.144531 10.78125 194.144531 8.292969 L 194.128906 3.8125 L 177.828125 3.8125 Z M 177.9375 4.847656 "/>
<path style=" stroke:none;fill-rule:nonzero;fill:rgb(0%,0%,0%);fill-opacity:1;" d="M 50.566406 4.917969 C 39.75 5.644531 33.796875 13.066406 31.914062 28.128906 C 31.535156 31.253906 31.371094 41.851562 31.644531 45.554688 C 32.546875 57.566406 35.785156 65.371094 41.539062 69.347656 C 44.632812 71.46875 49.28125 72.613281 53.878906 72.339844 C 59.105469 72.050781 62.671875 70.5625 65.875 67.351562 C 68.496094 64.71875 69.925781 62.25 71.300781 58.039062 C 73.21875 52.160156 74.085938 43.375 73.652344 34.230469 C 73.164062 23.992188 71.625 17.621094 68.460938 12.742188 C 65.4375 8.09375 60.664062 5.316406 55.089844 4.972656 C 54.203125 4.917969 53.261719 4.863281 53.011719 4.828125 C 52.757812 4.808594 51.671875 4.847656 50.566406 4.917969 Z M 53.117188 19.183594 C 54.4375 20.617188 55 26.332031 55 38.566406 C 55 53.628906 54.058594 59.890625 51.996094 58.546875 C 51.109375 57.949219 50.441406 55.027344 50.113281 50.179688 C 49.878906 46.640625 49.878906 30.4375 50.113281 27.042969 C 50.457031 22.25 51.074219 19.601562 51.996094 18.964844 C 52.503906 18.601562 52.59375 18.621094 53.117188 19.183594 Z M 53.117188 19.183594 "/>
<path style=" stroke:none;fill-rule:nonzero;fill:rgb(0%,0%,0%);fill-opacity:1;" d="M 75.988281 37.914062 L 75.988281 70.960938 L 92.578125 70.960938 L 92.6875 68.65625 C 92.757812 67.367188 92.902344 63.195312 93.011719 59.347656 C 93.121094 55.5 93.265625 52.125 93.335938 51.851562 C 93.425781 51.46875 94.207031 53.921875 96.59375 62.195312 C 98.332031 68.167969 99.796875 73.121094 99.867188 73.195312 C 100.011719 73.359375 116.984375 72.015625 117.164062 71.832031 C 117.21875 71.761719 115.335938 65.824219 112.984375 58.601562 L 108.714844 45.5 L 109.621094 44.699219 C 112.625 42.070312 115.101562 36.988281 115.808594 31.960938 C 116.113281 29.765625 115.917969 24.320312 115.445312 22.304688 C 113.636719 14.410156 108.84375 8.277344 102.726562 5.988281 C 100.066406 5.007812 100.285156 5.027344 87.710938 4.953125 L 75.988281 4.882812 Z M 94.640625 20.527344 C 95.925781 21.160156 96.972656 22.792969 97.535156 25.046875 C 97.914062 26.550781 97.859375 31.324219 97.445312 32.847656 C 96.667969 35.71875 95.292969 37.386719 93.230469 38.023438 L 92.8125 38.128906 L 92.8125 19.964844 L 93.410156 20.089844 C 93.71875 20.144531 94.277344 20.34375 94.640625 20.527344 Z M 94.640625 20.527344 "/>
<path style=" stroke:none;fill-rule:nonzero;fill:rgb(0%,0%,0%);fill-opacity:1;" d="M 116.332031 13.519531 L 116.332031 21.960938 L 125.558594 21.960938 L 125.558594 70.597656 L 142.925781 70.597656 L 142.925781 24.863281 L 152.335938 24.863281 L 152.335938 7.984375 L 151.9375 7.914062 C 151.558594 7.820312 117.054688 5.0625 116.566406 5.082031 C 116.386719 5.082031 116.332031 6.898438 116.332031 13.519531 Z M 116.332031 13.519531 "/>
<path style=" stroke:none;fill-rule:nonzero;fill:rgb(0%,0%,0%);fill-opacity:1;" d="M 197.925781 39.835938 L 197.925781 72.777344 L 215.839844 72.777344 L 215.839844 6.898438 L 197.925781 6.898438 Z M 197.925781 39.835938 "/>
<path style=" stroke:none;fill-rule:nonzero;fill:rgb(0%,0%,0%);fill-opacity:1;" d="M 236.28125 9.183594 C 226.476562 9.710938 218.316406 10.144531 218.15625 10.144531 C 217.847656 10.164062 217.828125 10.691406 217.828125 18.691406 L 217.828125 27.222656 L 227.054688 27.222656 L 227.054688 74.953125 L 244.605469 74.953125 L 244.605469 25.226562 L 254.375 25.226562 L 254.375 16.695312 C 254.375 11.996094 254.320312 8.183594 254.25 8.183594 C 254.15625 8.203125 246.089844 8.640625 236.28125 9.183594 Z M 236.28125 9.183594 "/>
</g>
</svg>
