<?xml version="1.0" encoding="UTF-8"?>
<svg xmlns="http://www.w3.org/2000/svg" xmlns:xlink="http://www.w3.org/1999/xlink" width="px" height="80px" viewBox="0 0 432 80" version="1.1">
<g id="surface1">
<path style=" stroke:none;fill-rule:nonzero;fill:rgb(0%,0%,0%);fill-opacity:1;" d="M 52.082031 51.898438 L 64.519531 74.679688 L 41.445312 74.679688 L 30.945312 55.210938 L 21 55.210938 L 21 74.679688 L 0 74.679688 L 0 5.667969 L 38.40625 5.667969 C 54.292969 5.667969 64.378906 14.492188 64.378906 30.367188 C 64.378906 40.578125 59.683594 47.894531 52.082031 51.898438 Z M 21 23.601562 L 21 37.265625 L 35.917969 37.265625 C 40.339844 37.265625 43.101562 34.644531 43.101562 30.367188 C 43.101562 26.085938 40.339844 23.601562 35.917969 23.601562 Z M 131.242188 79.78125 L 68.386719 62.804688 L 85.238281 0 L 148.097656 16.976562 Z M 119.363281 33.539062 L 101.816406 28.710938 L 97.121094 46.238281 L 114.664062 51.070312 Z M 220.074219 55.210938 C 220.074219 68.460938 211.648438 74.679688 198.523438 74.679688 L 157.355469 74.679688 L 157.355469 5.667969 L 197.144531 5.667969 C 210.265625 5.667969 218.695312 12.429688 218.695312 24.300781 C 218.695312 31.753906 215.929688 36.722656 210.679688 40.175781 C 216.621094 42.789062 220.074219 48.035156 220.074219 55.210938 Z M 177.800781 22.230469 L 177.800781 32.441406 L 191.472656 32.441406 C 195.203125 32.441406 197.410156 30.785156 197.410156 27.199219 C 197.410156 23.886719 195.203125 22.230469 191.472656 22.230469 Z M 177.800781 58.117188 L 193.136719 58.117188 C 196.726562 58.117188 198.808594 56.183594 198.808594 52.871094 C 198.808594 49.28125 196.734375 47.625 193.136719 47.625 L 177.800781 47.625 Z M 230.4375 5.667969 L 251.433594 5.667969 L 251.433594 54.246094 L 281.550781 54.246094 L 281.550781 74.679688 L 230.433594 74.679688 Z M 358.777344 40.175781 C 358.777344 47.273438 356.671875 54.210938 352.726562 60.113281 C 348.777344 66.011719 343.167969 70.613281 336.605469 73.328125 C 330.042969 76.046875 322.820312 76.757812 315.851562 75.371094 C 308.886719 73.988281 302.484375 70.570312 297.460938 65.550781 C 292.4375 60.53125 289.015625 54.136719 287.632812 47.175781 C 286.246094 40.214844 286.957031 33 289.675781 26.441406 C 292.394531 19.882812 296.996094 14.277344 302.90625 10.335938 C 308.8125 6.390625 315.757812 4.289062 322.859375 4.289062 C 327.578125 4.277344 332.253906 5.199219 336.617188 7 C 340.976562 8.800781 344.941406 11.441406 348.277344 14.773438 C 351.613281 18.109375 354.261719 22.066406 356.0625 26.425781 C 357.863281 30.78125 358.789062 35.453125 358.777344 40.167969 Z M 337.78125 40.175781 C 337.78125 31.613281 331.011719 24.851562 322.859375 24.851562 C 314.710938 24.851562 307.9375 31.613281 307.9375 40.175781 C 307.9375 48.734375 314.710938 55.496094 322.859375 55.496094 C 331.011719 55.496094 337.78125 48.722656 337.78125 40.167969 Z M 409.34375 39.070312 L 432 74.679688 L 406.988281 74.679688 L 394.558594 54.382812 L 381.710938 74.679688 L 356.292969 74.679688 L 379.914062 39.894531 L 358.226562 5.667969 L 383.230469 5.667969 L 394.699219 24.300781 L 405.75 5.667969 L 430.617188 5.667969 Z M 409.34375 39.070312 "/>
</g>
</svg>
